<?xml version="1.0" encoding="UTF-8" standalone="no"?>
<!-- Created with Inkscape (http://www.inkscape.org/) -->

<svg
   xmlns:dc="http://purl.org/dc/elements/1.1/"
   xmlns:cc="http://creativecommons.org/ns#"
   xmlns:rdf="http://www.w3.org/1999/02/22-rdf-syntax-ns#"
   xmlns:svg="http://www.w3.org/2000/svg"
   xmlns="http://www.w3.org/2000/svg"
   xmlns:sodipodi="http://sodipodi.sourceforge.net/DTD/sodipodi-0.dtd"
   xmlns:inkscape="http://www.inkscape.org/namespaces/inkscape"
   width="278.99707mm"
   height="407.20667mm"
   viewBox="0 0 988.5723 1442.8583"
   id="svg2"
   version="1.1"
   inkscape:version="0.91 r13725"
   sodipodi:docname="person.svg">
  <defs
     id="defs4">
    <clipPath
       clipPathUnits="userSpaceOnUse"
       id="clipPath4181">
      <rect
         style="opacity:0.27600002;fill:#ff9955;fill-opacity:1;stroke:none;stroke-opacity:1"
         id="rect4183"
         width="185.71428"
         height="594.28571"
         x="905.71429"
         y="620.93365"
         ry="49.562698" />
    </clipPath>
  </defs>
  <sodipodi:namedview
     id="base"
     pagecolor="#ffffff"
     bordercolor="#666666"
     borderopacity="1.0"
     inkscape:pageopacity="0.0"
     inkscape:pageshadow="2"
     inkscape:zoom="0.35"
     inkscape:cx="-162.55555"
     inkscape:cy="725.19197"
     inkscape:document-units="px"
     inkscape:current-layer="layer1"
     showgrid="false"
     inkscape:window-width="1301"
     inkscape:window-height="744"
     inkscape:window-x="65"
     inkscape:window-y="24"
     inkscape:window-maximized="1"
     fit-margin-top="0"
     fit-margin-left="0"
     fit-margin-right="0"
     fit-margin-bottom="0" />
  <metadata
     id="metadata7">
    <rdf:RDF>
      <cc:Work
         rdf:about="">
        <dc:format>image/svg+xml</dc:format>
        <dc:type
           rdf:resource="http://purl.org/dc/dcmitype/StillImage" />
        <dc:title />
      </cc:Work>
    </rdf:RDF>
  </metadata>
  <g
     inkscape:label="Layer 1"
     inkscape:groupmode="layer"
     id="layer1"
     transform="translate(118.57115,-29.505043)">
    <rect
       style="opacity:1;fill:#ff0000;fill-opacity:1;stroke:none;stroke-width:12.39500046;stroke-linecap:round;stroke-miterlimit:4;stroke-dasharray:none;stroke-opacity:1"
       id="rect4326"
       width="294.28571"
       height="205.71428"
       x="231.42857"
       y="1012.3623"
       ry="102.85714"
       rx="54.497356" />
    <rect
       style="opacity:1;fill:#aa4400;fill-opacity:1;stroke:none;stroke-width:12.39500046;stroke-linecap:round;stroke-miterlimit:4;stroke-dasharray:none;stroke-opacity:1"
       id="rect4302"
       width="460.00003"
       height="225.71428"
       x="131.42854"
       y="800.93365"
       ry="94.386444" />
    <path
       style="opacity:1;fill:#aa4400;fill-opacity:1;stroke:none;stroke-opacity:1"
       d="m 363.32422,86.648438 c -171.207,0 -309.039064,137.830112 -309.039064,309.037112 l 0,167.7539 c 18.498644,-3.50532 37.594003,-5.36328 57.142574,-5.36328 l 574.28711,0 0,-162.39062 c 0,-171.207 -137.83206,-309.037112 -309.03906,-309.037112 l -13.35156,0 z"
       id="rect4252"
       inkscape:connector-curvature="0" />
    <path
       style="opacity:1;fill:#ff0000;fill-opacity:1;stroke:none;stroke-opacity:1"
       d="m 375.71401,1060.9336 c -238.80837,0 -438.261489,174.3758 -494.28516,411.4288 l 988.57227,0 C 813.97765,1235.309 614.52258,1060.9336 375.71401,1060.9336 Z"
       id="rect4140"
       inkscape:connector-curvature="0" />
    <path
       style="opacity:1;fill:#ff5555;fill-opacity:1;stroke:none;stroke-opacity:1"
       d="m 375.71484,1060.9336 c -25.17118,0 -49.90327,1.9437 -74.07812,5.6875 -4.72383,39.9886 -7.35156,84.3791 -7.35156,131.1836 l 0,274.5586 168.57226,0 0,-274.5586 c 0,-46.4399 -2.58763,-90.4991 -7.24219,-130.2442 -26.02164,-4.358 -52.70425,-6.6269 -79.90039,-6.6269 z"
       id="rect4304"
       inkscape:connector-curvature="0" />
    <rect
       ry="119.53353"
       y="878.07654"
       x="294.28571"
       height="351.42859"
       width="168.57146"
       id="rect4145"
       style="opacity:1;fill:#ffe680;fill-opacity:1;stroke:none;stroke-opacity:1" />
    <path
       style="opacity:0.27600002;fill:#d45500;fill-opacity:1;stroke:none;stroke-opacity:1"
       d="m 379.99953,852.36216 c -47.48571,0 -85.71325,54.29575 -85.71325,121.73832 l 0,22.81759 c 26.32144,19.03113 55.98935,29.72983 87.42888,29.72983 30.08217,0 58.54068,-9.7955 83.99997,-27.31094 l 0,-25.23648 c 0,-67.44257 -38.22989,-121.73832 -85.7156,-121.73832 z"
       id="rect4147"
       inkscape:connector-curvature="0" />
    <g
       transform="matrix(-1,0,0,-0.77922078,994.2858,1311.7168)"
       clip-path="url(#clipPath4181)"
       id="g4185">
      <rect
         ry="74.829933"
         y="809.50507"
         x="822.85718"
         height="220"
         width="160.00002"
         id="rect4187"
         style="opacity:1;fill:#ffe680;fill-opacity:1;stroke:none;stroke-opacity:1" />
      <rect
         style="opacity:1;fill:#ff9955;fill-opacity:1;stroke:none;stroke-opacity:1"
         id="rect4189"
         width="97.142876"
         height="145.71428"
         x="854.28577"
         y="846.64789"
         ry="49.562683" />
    </g>
    <g
       id="g4191"
       clip-path="url(#clipPath4181)"
       transform="matrix(1,0,0,-0.77922078,-254.28575,1311.7168)">
      <rect
         style="opacity:1;fill:#ffe680;fill-opacity:1;stroke:none;stroke-opacity:1"
         id="rect4193"
         width="160.00002"
         height="220"
         x="822.85718"
         y="809.50507"
         ry="74.829933" />
      <rect
         ry="49.562683"
         y="846.64789"
         x="854.28577"
         height="145.71428"
         width="97.142876"
         id="rect4195"
         style="opacity:1;fill:#ff9955;fill-opacity:1;stroke:none;stroke-opacity:1" />
    </g>
    <rect
       style="opacity:1;fill:#ffe680;fill-opacity:1;stroke:none;stroke-opacity:1"
       id="rect4136"
       width="571.42859"
       height="840"
       x="82.857147"
       y="155.21936"
       ry="285.71429" />
    <g
       id="g4217"
       transform="translate(8.5714283,8.5714286)">
      <rect
         rx="0"
         ry="2.5587518"
         y="554.2533"
         x="141.89101"
         height="21.932158"
         width="44.789307"
         id="rect4213"
         style="opacity:1;fill:#000000;fill-opacity:1;stroke:#000000;stroke-width:2.55355644;stroke-miterlimit:4;stroke-dasharray:none;stroke-opacity:1" />
      <rect
         inkscape:transform-center-y="-20"
         inkscape:transform-center-x="8.5714286"
         transform="matrix(0.47987079,0.87733917,-0.87733917,0.47987079,0,0)"
         style="opacity:1;fill:#000000;fill-opacity:1;stroke:#000000;stroke-width:2.55355644;stroke-miterlimit:4;stroke-dasharray:none;stroke-opacity:1"
         id="rect4215"
         width="44.789307"
         height="21.932158"
         x="514.77167"
         y="59.76619"
         ry="2.5587518"
         rx="0" />
      <g
         transform="translate(-728.57143,-74.285714)"
         id="g4201">
        <rect
           ry="55.393589"
           y="569.50507"
           x="917.14288"
           height="162.85715"
           width="108.57144"
           id="rect4197"
           style="opacity:1;fill:#ffffff;fill-opacity:1;stroke:none;stroke-opacity:1" />
        <rect
           style="opacity:1;fill:#803300;fill-opacity:1;stroke:none;stroke-opacity:1"
           id="rect4199"
           width="74.285728"
           height="111.42857"
           x="934.28571"
           y="600.93365"
           ry="37.900879" />
      </g>
    </g>
    <rect
       style="opacity:1;fill:#ff8080;fill-opacity:1"
       id="rect4242"
       width="113.11214"
       height="21.683554"
       x="146.30116"
       y="701.52039"
       ry="10.841777" />
    <rect
       ry="10.841777"
       y="698.66327"
       x="469.15833"
       height="21.683554"
       width="113.11214"
       id="rect4244"
       style="opacity:1;fill:#ff8080;fill-opacity:1" />
    <path
       style="fill:none;fill-rule:evenodd;stroke:#bf0000;stroke-width:16.39500046;stroke-linecap:round;stroke-linejoin:miter;stroke-miterlimit:4;stroke-dasharray:none;stroke-opacity:1"
       d="m 305.0757,801.51322 c 0,0 56.4633,97.95138 129.53354,1.18013"
       id="path4248"
       inkscape:connector-curvature="0" />
    <rect
       ry="10.841777"
       y="870.0918"
       x="332.01544"
       height="21.683554"
       width="73.112137"
       id="rect4250"
       style="opacity:1;fill:#ff9955;fill-opacity:1" />
    <rect
       ry="27.210886"
       y="552.36224"
       x="225.71429"
       height="80"
       width="57.142876"
       id="rect4264"
       style="opacity:1;fill:#000000;fill-opacity:1;stroke:none;stroke-opacity:1" />
    <path
       style="opacity:1;fill:#ff9955;fill-opacity:1;stroke:none;stroke-width:12.39500046;stroke-linecap:round;stroke-miterlimit:4;stroke-dasharray:none;stroke-opacity:1"
       d="m 311.42909,689.20257 0,3.70561 c 0,12.36004 10.0704,22.31057 22.5793,22.31057 l 66.2695,0 c 12.5089,0 22.5793,-9.95053 22.5793,-22.31057 l 0,-3.70561 -111.4281,0 z"
       id="rect4268"
       inkscape:connector-curvature="0" />
    <g
       id="g4291">
      <g
         id="g4224"
         transform="matrix(-1,0,0,1,729.18569,8.5714286)">
        <rect
           rx="0"
           ry="2.5587518"
           y="554.2533"
           x="141.89101"
           height="21.932158"
           width="44.789307"
           id="rect4226"
           style="opacity:1;fill:#000000;fill-opacity:1;stroke:#000000;stroke-width:2.55355644;stroke-miterlimit:4;stroke-dasharray:none;stroke-opacity:1" />
        <rect
           inkscape:transform-center-y="-20"
           inkscape:transform-center-x="8.5714286"
           transform="matrix(0.47987079,0.87733917,-0.87733917,0.47987079,0,0)"
           style="opacity:1;fill:#000000;fill-opacity:1;stroke:#000000;stroke-width:2.55355644;stroke-miterlimit:4;stroke-dasharray:none;stroke-opacity:1"
           id="rect4228"
           width="44.789307"
           height="21.932158"
           x="514.77167"
           y="59.76619"
           ry="2.5587518"
           rx="0" />
        <g
           transform="translate(-728.57143,-74.285714)"
           id="g4230">
          <rect
             ry="55.393589"
             y="569.50507"
             x="917.14288"
             height="162.85715"
             width="108.57144"
             id="rect4232"
             style="opacity:1;fill:#ffffff;fill-opacity:1;stroke:none;stroke-opacity:1" />
          <rect
             style="opacity:1;fill:#803300;fill-opacity:1;stroke:none;stroke-opacity:1"
             id="rect4234"
             width="74.285728"
             height="111.42857"
             x="934.28571"
             y="600.93365"
             ry="37.900879" />
        </g>
      </g>
      <rect
         ry="27.210886"
         y="552.36224"
         x="457.14288"
         height="80"
         width="57.142876"
         id="rect4266"
         style="opacity:1;fill:#000000;fill-opacity:1;stroke:none;stroke-opacity:1" />
    </g>
    <path
       style="opacity:1;fill:#aa4400;fill-opacity:1;stroke:none;stroke-width:12.39500046;stroke-linecap:round;stroke-miterlimit:4;stroke-dasharray:none;stroke-opacity:1"
       d="m 368.57227,126.64732 c -100.94367,0 -189.32785,51.83231 -240.125,130.43555 A 312.85715,327.14285 0 0 0 435.71484,523.7899 312.85715,327.14285 0 0 0 654.28516,430.64927 l 0,-18.28711 c 0,-158.28572 -127.42718,-285.71484 -285.71289,-285.71484 z"
       id="path4279"
       inkscape:connector-curvature="0" />
    <rect
       ry="1.4577945"
       y="309.5957"
       x="506.74689"
       height="19.533573"
       width="85.247856"
       id="rect4240"
       style="opacity:1;fill:#000000;fill-opacity:1;stroke:#000000;stroke-width:7.80928326;stroke-miterlimit:4;stroke-dasharray:none;stroke-opacity:1"
       transform="matrix(0.99187719,0.12719923,-0.12719923,0.99187719,0,0)" />
    <ellipse
       style="opacity:1;fill:#aa4400;fill-opacity:1;stroke:none;stroke-width:12.39500046;stroke-linecap:round;stroke-miterlimit:4;stroke-dasharray:none;stroke-opacity:1"
       id="path4300"
       cx="371.42862"
       cy="146.6479"
       rx="111.42857"
       ry="117.14286" />
    <rect
       transform="matrix(0.99229228,-0.12391943,0.12391943,0.99229228,0,0)"
       style="opacity:1;fill:#000000;fill-opacity:1;stroke:#000000;stroke-width:7.80928326;stroke-miterlimit:4;stroke-dasharray:none;stroke-opacity:1"
       id="rect3373"
       width="85.247856"
       height="19.533573"
       x="127.05775"
       y="395.31595"
       ry="1.4577945" />
  </g>
</svg>
