<?xml version="1.0" encoding="UTF-8" standalone="no"?>
<!-- Created with Inkscape (http://www.inkscape.org/) -->

<svg
   xmlns:dc="http://purl.org/dc/elements/1.1/"
   xmlns:cc="http://creativecommons.org/ns#"
   xmlns:rdf="http://www.w3.org/1999/02/22-rdf-syntax-ns#"
   xmlns:svg="http://www.w3.org/2000/svg"
   xmlns="http://www.w3.org/2000/svg"
   xmlns:sodipodi="http://sodipodi.sourceforge.net/DTD/sodipodi-0.dtd"
   xmlns:inkscape="http://www.inkscape.org/namespaces/inkscape"
   width="210mm"
   height="297mm"
   viewBox="0 0 744.09448819 1052.3622047"
   id="svg2"
   version="1.1"
   inkscape:version="0.91 r13725"
   sodipodi:docname="vw_bug_color.svg">
  <defs
     id="defs4" />
  <sodipodi:namedview
     id="base"
     pagecolor="#ffffff"
     bordercolor="#666666"
     borderopacity="1.0"
     inkscape:pageopacity="0.0"
     inkscape:pageshadow="2"
     inkscape:zoom="0.35"
     inkscape:cx="505.33183"
     inkscape:cy="520"
     inkscape:document-units="px"
     inkscape:current-layer="layer1"
     showgrid="false"
     inkscape:window-width="1301"
     inkscape:window-height="744"
     inkscape:window-x="65"
     inkscape:window-y="24"
     inkscape:window-maximized="1" />
  <metadata
     id="metadata7">
    <rdf:RDF>
      <cc:Work
         rdf:about="">
        <dc:format>image/svg+xml</dc:format>
        <dc:type
           rdf:resource="http://purl.org/dc/dcmitype/StillImage" />
        <dc:title></dc:title>
      </cc:Work>
    </rdf:RDF>
  </metadata>
  <g
     inkscape:label="Layer 1"
     inkscape:groupmode="layer"
     id="layer1">
    <path
       style="fill:none;fill-rule:evenodd;stroke:#000000;stroke-width:1px;stroke-linecap:butt;stroke-linejoin:miter;stroke-opacity:1"
       d="m 568.57143,566.64792 c -17.14286,-42.85714 -51.42857,-80 -51.42857,-80 C 320,260.93363 194.28571,489.50506 194.28571,489.50506 77.142857,478.07649 74.285714,595.21935 74.285714,595.21935 c 0,0 25.714286,31.42857 62.857146,31.42857 0,0 51.42857,100 120,0 l 177.14285,0 c 0,0 62.85715,102.85714 114.28572,-2.85714 0,0 54.28572,14.28571 20,-57.14286 z"
       id="path4136"
       inkscape:connector-curvature="0" />
    <ellipse
       style="opacity:0.81300001;fill:#000000;fill-opacity:1;stroke:#000000;stroke-width:5;stroke-miterlimit:4;stroke-dasharray:none;stroke-dashoffset:0"
       id="path4157"
       cx="192.85715"
       cy="628.07648"
       rx="47.142857"
       ry="38.57143" />
    <ellipse
       style="opacity:0.81300001;fill:#000000;fill-opacity:1;stroke:#000000;stroke-width:5.02379417;stroke-miterlimit:4;stroke-dasharray:none;stroke-dashoffset:0"
       id="path4157-3"
       cx="490.00003"
       cy="625.2193"
       rx="42.845245"
       ry="42.845249" />
    <ellipse
       style="opacity:0.81300001;fill:#ffff00;fill-opacity:1;stroke:#ffff00;stroke-width:5;stroke-miterlimit:4;stroke-dasharray:none;stroke-dashoffset:0"
       id="path4174"
       cx="115.71429"
       cy="555.21936"
       rx="15.714286"
       ry="17.142857" />
    <path
       style="fill:#afe9dd;fill-rule:evenodd;stroke:#000000;stroke-width:1px;stroke-linecap:butt;stroke-linejoin:miter;stroke-opacity:1"
       d="m 217.14286,489.50506 c 0,0 120,-177.14286 265.71428,-2.85714 z"
       id="path4178"
       inkscape:connector-curvature="0" />
    <path
       style="opacity:0.81300001;fill:#00aad4;fill-opacity:1;stroke:#000000;stroke-width:14.28571415;stroke-miterlimit:4;stroke-dasharray:none;stroke-dashoffset:0"
       d="m 536.19035,630.64792 c 1.16628,-9.93686 0.009,-15.73944 -5.10329,-25.54702 -8.37886,-16.07996 -18.2646,-23.26848 -34.5186,-25.10055 -27.399,-3.08826 -48.94477,13.44766 -52.50654,40.29768 -1.58483,11.94707 -2.39769,13.3757 -5.32934,9.36644 -3.09223,-4.22887 -12.96398,-4.73084 -93.03697,-4.73084 l -89.57769,0 -6.43315,7.85715 -6.43315,7.85714 -0.11343,-11.42857 c -0.2474,-24.92661 -20.91924,-42.52735 -49.86754,-42.459 -10.46342,0.0246 -20.9234,1.90055 -26.31277,4.71881 -13.25617,6.93204 -23.90444,20.94756 -23.95551,31.53083 -0.024,4.98657 -0.98835,7.65817 -2.14286,5.93689 -1.15451,-1.72129 -7.05699,-3.9126 -13.11663,-4.86958 -13.55242,-2.1403 -31.999878,-11.41978 -42.826187,-21.54254 -7.219233,-6.75008 -7.963126,-9.04412 -6.644106,-20.48931 2.546058,-22.09224 12.809114,-44.63644 27.774923,-61.01143 18.04934,-19.74885 36.15235,-27.75201 67.14879,-29.68581 l 23.1485,-1.44418 7.98708,-12.62485 c 4.39288,-6.94366 16.50782,-21.39778 26.92208,-32.12028 43.48714,-44.77425 92.49914,-63.17344 141.3843,-53.07594 40.88306,8.44463 73.5082,27.6584 115.34069,67.92709 34.52397,33.23337 58.09485,64.56922 74.56151,99.12433 20.70223,43.44345 19.25006,62.90634 -4.69843,62.97009 -9.09528,0.0243 -11.36171,1.46659 -16.83548,10.71428 l -6.32529,10.68631 1.50909,-12.85714 z M 126.94652,570.44055 c 9.84111,-7.74102 10.0587,-20.37899 0.51518,-29.9225 -8.55629,-8.55629 -12.84809,-8.76352 -22.6017,-1.09133 -5.460073,4.29489 -7.528166,8.55486 -7.528166,15.50691 0,6.95205 2.068093,11.21202 7.528166,15.50692 4.14049,3.25691 9.10996,5.92165 11.04326,5.92165 1.9333,0 6.90277,-2.66474 11.04326,-5.92165 z m 318.65326,-82.29452 41.12508,-1.78383 -27.04043,-25.83455 c -60.47605,-57.77909 -122.7063,-67.74802 -183.34803,-29.37129 -15.90088,10.06276 -47.56007,38.92483 -56.63849,51.63442 l -5.61233,7.85714 95.19456,-0.35903 c 52.35701,-0.19746 113.70084,-1.16175 136.31964,-2.14286 z"
       id="path4180"
       inkscape:connector-curvature="0" />
    <ellipse
       style="opacity:0.81300001;fill:#ffffff;fill-opacity:1;stroke:#000000;stroke-width:4.76465464;stroke-miterlimit:4;stroke-dasharray:none;stroke-dashoffset:0"
       id="path4182"
       cx="325.63394"
       cy="482.8349"
       rx="42.11681"
       ry="16.896725"
       transform="matrix(0.87847835,0.47778215,-0.40014762,0.9164507,0,0)"
       inkscape:transform-center-x="-20.578982"
       inkscape:transform-center-y="-8.6129003" />
  </g>
</svg>
