<?xml version="1.0" encoding="UTF-8" standalone="no"?>
<!-- Created with Inkscape (http://www.inkscape.org/) -->

<svg
   xmlns:dc="http://purl.org/dc/elements/1.1/"
   xmlns:cc="http://creativecommons.org/ns#"
   xmlns:rdf="http://www.w3.org/1999/02/22-rdf-syntax-ns#"
   xmlns:svg="http://www.w3.org/2000/svg"
   xmlns="http://www.w3.org/2000/svg"
   xmlns:sodipodi="http://sodipodi.sourceforge.net/DTD/sodipodi-0.dtd"
   xmlns:inkscape="http://www.inkscape.org/namespaces/inkscape"
   width="107.40758mm"
   height="63.2519mm"
   viewBox="0 0 380.57803 224.12092"
   id="svg2"
   version="1.1"
   inkscape:version="0.91 r13725"
   sodipodi:docname="materialize.svg">
  <defs
     id="defs4" />
  <sodipodi:namedview
     id="base"
     pagecolor="#ffffff"
     bordercolor="#666666"
     borderopacity="1.0"
     inkscape:pageopacity="0.0"
     inkscape:pageshadow="2"
     inkscape:zoom="0.35"
     inkscape:cx="314.23004"
     inkscape:cy="149.13676"
     inkscape:document-units="px"
     inkscape:current-layer="layer1"
     showgrid="false"
     inkscape:window-width="651"
     inkscape:window-height="716"
     inkscape:window-x="715"
     inkscape:window-y="24"
     inkscape:window-maximized="0"
     fit-margin-top="0"
     fit-margin-left="0"
     fit-margin-right="0"
     fit-margin-bottom="0"
     inkscape:snap-text-baseline="true" />
  <metadata
     id="metadata7">
    <rdf:RDF>
      <cc:Work
         rdf:about="">
        <dc:format>image/svg+xml</dc:format>
        <dc:type
           rdf:resource="http://purl.org/dc/dcmitype/StillImage" />
        <dc:title></dc:title>
      </cc:Work>
    </rdf:RDF>
  </metadata>
  <g
     inkscape:label="Layer 1"
     inkscape:groupmode="layer"
     id="layer1"
     transform="translate(-60.769947,-457.37804)">
    <text
       xml:space="preserve"
       style="font-style:normal;font-weight:normal;font-size:40px;line-height:125%;font-family:sans-serif;letter-spacing:0px;word-spacing:0px;fill:#000000;fill-opacity:1;stroke:none;stroke-width:1px;stroke-linecap:butt;stroke-linejoin:miter;stroke-opacity:1"
       x="230.92773"
       y="553.73029"
       id="text3412"
       sodipodi:linespacing="125%"><tspan
         sodipodi:role="line"
         id="tspan3414"
         x="230.92773"
         y="553.73029"></tspan></text>
    <text
       xml:space="preserve"
       style="font-style:normal;font-weight:normal;font-size:40px;line-height:125%;font-family:sans-serif;letter-spacing:0px;word-spacing:0px;fill:#ffffff;fill-opacity:1;stroke:none;stroke-width:1px;stroke-linecap:butt;stroke-linejoin:miter;stroke-opacity:1"
       x="199.49916"
       y="605.15887"
       id="text3416"
       sodipodi:linespacing="125%"><tspan
         sodipodi:role="line"
         id="tspan3418"
         x="199.49916"
         y="605.15887"
         style="font-size:180px;fill:#ffffff">B</tspan></text>
    <path
       style="opacity:1;fill:#ff00ff;fill-opacity:1;stroke:none;stroke-width:12.39500046;stroke-linecap:round;stroke-miterlimit:4;stroke-dasharray:none;stroke-opacity:1"
       id="path3443"
       d="m 60.769939,681.49896 c 3.66776,-9.075 9.82593,-16.873 15.30768,-24.9045 6.14527,-9.7549 13.7527,-18.4623 20.19276,-27.999 5.991781,-9.8022 10.819131,-20.2352 15.226901,-30.8239 3.93882,-10.2159 7.59229,-20.5348 10.98415,-30.9445 3.82302,-10.7819 5.65271,-22.1021 7.56636,-33.3386 1.50044,-9.58795 2.16458,-19.27356 2.42289,-28.9663 0.14774,-5.7506 -0.0239,-11.50076 -0.27777,-17.24514 -0.86783,-15.51956 -31.44761,9.74339 37.6818,-19.95206 0.68754,-0.29534 -0.20299,1.48578 -0.22236,2.23382 -0.0554,2.13818 0.21562,3.65426 0.4739,5.804 1.3477,8.53428 2.63751,17.09162 4.61394,25.50692 2.90826,10.15213 4.80493,20.54365 7.14009,30.82856 2.06274,10.1894 4.71638,20.2352 7.48939,30.25 2.52871,9.4878 5.95858,18.7032 9.91006,27.6832 4.8296,10.3752 11.9282,19.1665 20.02599,27.1427 7.61069,6.8144 15.09222,13.8933 23.78385,19.3181 6.58802,3.9146 13.57447,7.2206 20.73833,9.9585 3.9443,1.4922 5.19207,1.7335 8.3703,-1.0885 -56.84458,33.3616 -35.92316,24.7619 -26.75848,11.4914 3.44294,-4.9853 6.27225,-10.3667 9.15522,-15.6824 5.89101,-11.2581 9.44575,-23.4274 12.76134,-35.6252 3.4194,-12.1967 4.46043,-24.8427 5.9934,-37.3658 1.58604,-11.2049 1.73159,-22.5117 2.10584,-33.7971 0.86273,-10.12974 1.91531,-20.23648 2.2476,-30.40328 0.52444,-7.72476 0.88842,-15.52154 0.26799,-23.25269 -5.29963,-13.51687 -1.34613,-2.77546 37.45322,-18.01891 0.80037,-0.31445 -0.0848,1.71775 -0.12179,2.57687 -0.16139,3.74411 -0.21021,7.49021 -0.32865,11.23599 -0.35907,9.85147 -0.26303,19.68574 0.61427,29.50306 1.17669,8.98816 3.81894,17.64519 6.85014,26.15556 5.26873,11.2788 11.02432,22.3162 17.30612,33.0641 7.71001,13.9327 16.1472,27.4064 25.00124,40.6323 5.95023,9.8793 12.99575,18.9823 21.12446,27.1466 5.31189,4.7163 11.11049,8.9115 17.24611,12.4925 3.5247,1.8633 6.78139,3.7702 10.76353,4.4816 2.7919,0.4524 5.62875,0.3337 8.44525,0.3499 3.60658,-0.04 4.69938,0.56 7.47538,-1.9619 -59.5296,35.4508 -37.28002,26.3636 -28.3361,12.474 1.15398,-1.73 1.76878,-3.5985 1.95525,-5.6569 0,0 37.92845,-19.0628 37.92845,-19.0628 l 0,0 c -0.0647,2.5545 -0.11752,5.2328 -1.3379,7.5431 -8.60908,16.7053 -24.91889,21.5987 -43.08896,31.0551 -2.88485,0.7449 -5.84034,0.4184 -8.80951,0.4065 -3.02009,-0.051 -6.04136,-0.3769 -8.94026,-1.2719 -4.03256,-1.3632 -7.63678,-3.5035 -11.21996,-5.7782 -5.96228,-4.2752 -11.91934,-8.6188 -17.26411,-13.6592 -7.75885,-8.7196 -14.20678,-18.5433 -20.37728,-28.4245 -8.56544,-13.456 -16.88708,-27.058 -25.07374,-40.7471 -6.74022,-10.7593 -12.71716,-21.9549 -18.61477,-33.1932 -3.40828,-8.7608 -5.92441,-17.8065 -7.29847,-27.12252 -1.04081,-9.91178 -0.89418,-19.79348 -1.00082,-29.75396 -0.80191,-25.54042 -4.10797,-12.1881 37.29632,-34.42194 0.28851,-0.15493 -0.18293,0.62889 -0.2744,0.94333 -0.67641,7.90224 -0.53383,15.85231 -0.74051,23.77425 -1.01673,10.14162 -1.89133,20.29695 -2.72926,30.45458 -0.20472,11.48126 -1.19287,22.95336 -2.35852,34.37146 -1.61438,12.6843 -2.49498,25.5236 -5.82001,37.9147 -3.36956,12.3837 -6.52672,24.86 -12.31595,36.4047 -2.76929,5.3442 -5.52049,10.7 -8.55945,15.8985 -0.0498,0.085 -4.61438,7.7281 -5.11422,8.0543 -12.4324,8.1154 -25.47621,15.2532 -38.21431,22.8797 -3.97669,0.9447 -7.03266,0.225 -10.53763,-1.8475 -6.84639,-3.5255 -13.79877,-6.9132 -20.30958,-11.0291 -8.64576,-5.8994 -16.33032,-13.0027 -23.84901,-20.2631 -8.31312,-8.3976 -15.80869,-17.5069 -20.96513,-28.2282 -4.46893,-8.9776 -7.6959,-18.5589 -10.25478,-28.248 -2.91976,-10.0491 -5.43986,-20.2191 -7.60032,-30.4569 -2.23996,-10.2722 -4.26924,-20.5864 -7.06454,-30.73196 -2.28517,-8.39077 -3.88758,-16.95596 -5.54665,-25.48148 -0.13413,-0.76201 -1.48105,-8.11788 -1.35356,-8.19335 62.22295,-36.83363 38.37165,-33.74306 37.72188,-18.45336 -0.21223,5.94802 -0.42211,11.89592 -0.57731,17.84621 -0.37957,9.95239 -1.00089,19.8964 -2.75969,29.71876 -1.75421,11.37218 -3.53876,22.78198 -7.06745,33.76958 -3.32078,10.5615 -7.22689,20.9251 -10.9622,31.3471 -4.60977,10.6338 -9.08007,21.3415 -14.86952,31.4158 -6.04156,9.8857 -14.20835,18.2253 -20.22356,28.1546 -5.12351,7.3812 -10.52815,14.7036 -14.360961,22.8415 0,0 -38.14195,18.2715 -38.14195,18.2715 z"
       inkscape:connector-curvature="0" />
  </g>
</svg>
