<?xml version="1.0" encoding="UTF-8" standalone="no"?>
<!-- Created with Inkscape (http://www.inkscape.org/) -->

<svg
   xmlns:dc="http://purl.org/dc/elements/1.1/"
   xmlns:cc="http://creativecommons.org/ns#"
   xmlns:rdf="http://www.w3.org/1999/02/22-rdf-syntax-ns#"
   xmlns:svg="http://www.w3.org/2000/svg"
   xmlns="http://www.w3.org/2000/svg"
   xmlns:sodipodi="http://sodipodi.sourceforge.net/DTD/sodipodi-0.dtd"
   xmlns:inkscape="http://www.inkscape.org/namespaces/inkscape"
   width="164.09059mm"
   height="129.55945mm"
   viewBox="0 0 581.42336 459.06891"
   id="svg2"
   version="1.1"
   inkscape:version="0.91 r13725"
   sodipodi:docname="mysql.svg">
  <defs
     id="defs4" />
  <sodipodi:namedview
     id="base"
     pagecolor="#ffffff"
     bordercolor="#666666"
     borderopacity="1.0"
     inkscape:pageopacity="0.0"
     inkscape:pageshadow="2"
     inkscape:zoom="0.35"
     inkscape:cx="265.05176"
     inkscape:cy="249.81309"
     inkscape:document-units="px"
     inkscape:current-layer="layer1"
     showgrid="false"
     inkscape:window-width="741"
     inkscape:window-height="716"
     inkscape:window-x="65"
     inkscape:window-y="24"
     inkscape:window-maximized="0"
     fit-margin-top="0"
     fit-margin-left="0"
     fit-margin-right="0"
     fit-margin-bottom="0" />
  <metadata
     id="metadata7">
    <rdf:RDF>
      <cc:Work
         rdf:about="">
        <dc:format>image/svg+xml</dc:format>
        <dc:type
           rdf:resource="http://purl.org/dc/dcmitype/StillImage" />
        <dc:title></dc:title>
      </cc:Work>
    </rdf:RDF>
  </metadata>
  <g
     inkscape:label="Layer 1"
     inkscape:groupmode="layer"
     id="layer1"
     transform="translate(-172.94389,-323.10639)">
    <path
       style="fill:none;fill-rule:evenodd;stroke:#000000;stroke-width:1px;stroke-linecap:butt;stroke-linejoin:miter;stroke-opacity:1"
       d="m 680,778.07649 c -2.85714,-40 -80,-97.14286 -80,-97.14286 14.28571,-22.85714 142.85714,-11.42857 142.85714,-11.42857 C 617.14286,546.64792 580,609.50506 580,609.50506 431.42857,200.93363 308.57143,375.21935 308.57143,375.21935 300,312.3622 182.85714,329.50506 182.85714,329.50506 c 0,0 -37.14285,48.57143 74.28572,174.28572 0,0 -31.42857,128.57142 11.42857,154.28571 L 320,575.21935 c 0,0 51.42857,128.57143 102.85714,162.85714 z"
       id="path4138"
       inkscape:connector-curvature="0" />
    <path
       style="fill:none;fill-rule:evenodd;stroke:#000000;stroke-width:1px;stroke-linecap:butt;stroke-linejoin:miter;stroke-opacity:1"
       d="m 331.42857,412.3622 c 0,0 34.28572,11.42858 25.71429,31.42858"
       id="path4142"
       inkscape:connector-curvature="0" />
    <path
       style="opacity:0.81300001;fill:#5599ff;fill-opacity:1;stroke:#00aad4;stroke-width:14.28571415;stroke-miterlimit:4;stroke-dasharray:none;stroke-dashoffset:0"
       d="m 614.28137,766.22575 c -26.71428,-4.32892 -80.71428,-12.83629 -120,-18.90529 l -71.42857,-11.03451 -12.3695,-11.3918 c -18.13684,-16.70332 -46.06323,-60.4094 -69.17876,-108.26795 -11.1705,-23.12748 -21.37878,-41.38942 -22.68506,-40.58209 -1.3063,0.80733 -13.10247,18.80958 -26.21374,40.00498 -13.11126,21.19543 -25.03918,38.15083 -26.5065,37.67869 -4.8421,-1.55803 -12.98586,-20.5624 -16.20556,-37.81752 -3.49681,-18.74013 -1.72072,-51.643 4.81505,-89.20102 l 4.11605,-23.65297 -19.40495,-24.11247 c -23.7514,-29.51334 -44.23444,-62.92904 -52.55887,-85.74367 -7.24986,-19.86955 -8.90124,-53.16586 -2.93197,-59.11635 5.94413,-5.92542 63.87181,-4.70319 82.95598,1.7503 18.80833,6.36022 33.31551,18.69974 37.73762,32.09888 l 3.34725,10.14226 11.8272,-11.47381 c 18.75426,-18.19391 34.09994,-24.81063 57.54148,-24.81063 27.86113,0 47.54374,9.93989 75.92625,38.34342 37.66846,37.69635 76.53983,105.39641 111.26686,193.78708 l 14.86851,37.84478 8.15575,-6.86261 c 26.42363,-22.23401 74.84303,-4.7638 135.18094,48.77464 l 13.39703,11.88734 -57.96909,1.06046 c -46.22103,0.84557 -60.14048,2.02586 -68.6834,5.82403 -5.89285,2.61997 -10.71428,5.82497 -10.71428,7.12226 0,1.29725 9.7846,10.68431 21.74354,20.86005 24.03317,20.44963 47.44189,48.14923 54.04406,63.95049 l 4.28908,10.2652 -7.89548,-0.27572 c -4.34252,-0.15165 -29.75263,-3.81757 -56.46692,-8.14645 z M 358.79066,430.95024 c -2.75267,-7.24006 -19.31729,-19.24665 -26.2751,-19.04507 -2.17166,0.0629 -0.0913,2.15241 4.62296,4.64331 14.04752,7.42235 18.56658,12.7783 18.65831,22.11369 0.07,7.12246 0.62883,7.91415 2.87246,4.0692 1.75515,-3.00782 1.80005,-7.36587 0.12137,-11.78113 z"
       id="path4144"
       inkscape:connector-curvature="0" />
  </g>
</svg>
